<svg xmlns="http://www.w3.org/2000/svg" xmlns:xlink="http://www.w3.org/1999/xlink" contentStyleType="text/css" data-diagram-type="ACTIVITY" height="578px" preserveAspectRatio="none" style="width:247px;height:578px;background:#FFFFFF;" version="1.1" viewBox="0 0 247 578" width="247px" zoomAndPan="magnify"><defs/><g><ellipse cx="109.9517" cy="20" fill="#222222" rx="10" ry="10" style="stroke:#222222;stroke-width:1;"/><rect fill="#F1F1F1" height="33.9688" rx="12.5" ry="12.5" style="stroke:#181818;stroke-width:0.5;" width="77.6797" x="71.1118" y="50"/><text fill="#000000" font-family="sans-serif" font-size="12" lengthAdjust="spacing" textLength="57.6797" x="81.1118" y="71.1387">Ba&#351;lang&#305;&#231;</text><rect fill="#F1F1F1" height="33.9688" rx="12.5" ry="12.5" style="stroke:#181818;stroke-width:0.5;" width="109.3672" x="55.2681" y="103.9688"/><text fill="#000000" font-family="sans-serif" font-size="12" lengthAdjust="spacing" textLength="89.3672" x="65.2681" y="125.1074">Labirenti Y&#252;kle</text><rect fill="#F1F1F1" height="33.9688" rx="12.5" ry="12.5" style="stroke:#181818;stroke-width:0.5;" width="90.9395" x="64.4819" y="157.9375"/><text fill="#000000" font-family="sans-serif" font-size="12" lengthAdjust="spacing" textLength="70.9395" x="74.4819" y="179.0762">Topu Ba&#351;lat</text><rect fill="#F1F1F1" height="33.9688" rx="12.5" ry="12.5" style="stroke:#181818;stroke-width:0.5;" width="138.0137" x="40.9448" y="211.9063"/><text fill="#000000" font-family="sans-serif" font-size="12" lengthAdjust="spacing" textLength="118.0137" x="50.9448" y="233.0449">Kullan&#305;c&#305; Hareket Et</text><rect fill="#F1F1F1" height="33.9688" rx="12.5" ry="12.5" style="stroke:#181818;stroke-width:0.5;" width="116.5684" x="51.6675" y="265.875"/><text fill="#000000" font-family="sans-serif" font-size="12" lengthAdjust="spacing" textLength="96.5684" x="61.6675" y="287.0137">Engel Kontrol Et</text><polygon fill="#F1F1F1" points="71.8921,319.8438,148.0112,319.8438,160.0112,331.8438,148.0112,343.8438,71.8921,343.8438,59.8921,331.8438,71.8921,319.8438" style="stroke:#181818;stroke-width:0.5;"/><text fill="#000000" font-family="sans-serif" font-size="11" lengthAdjust="spacing" textLength="76.1191" x="71.8921" y="335.6519">Engel Var m&#305;?</text><text fill="#000000" font-family="sans-serif" font-size="11" lengthAdjust="spacing" textLength="19.0083" x="40.8838" y="329.2495">yes</text><text fill="#000000" font-family="sans-serif" font-size="11" lengthAdjust="spacing" textLength="13.7017" x="160.0112" y="329.2495">no</text><rect fill="#F1F1F1" height="33.9688" rx="12.5" ry="12.5" style="stroke:#181818;stroke-width:0.5;" width="75.1309" x="11" y="353.8438"/><text fill="#000000" font-family="sans-serif" font-size="12" lengthAdjust="spacing" textLength="55.1309" x="21" y="374.9824">Engeli A&#351;</text><rect fill="#F1F1F1" height="33.9688" rx="12.5" ry="12.5" style="stroke:#181818;stroke-width:0.5;" width="130.4141" x="106.1309" y="353.8438"/><text fill="#000000" font-family="sans-serif" font-size="12" lengthAdjust="spacing" textLength="110.4141" x="116.1309" y="374.9824">Hareket Devam Et</text><polygon fill="#F1F1F1" points="109.9517,393.8125,121.9517,405.8125,109.9517,417.8125,97.9517,405.8125,109.9517,393.8125" style="stroke:#181818;stroke-width:0.5;"/><rect fill="#F1F1F1" height="33.9688" rx="12.5" ry="12.5" style="stroke:#181818;stroke-width:0.5;" width="106.5781" x="56.6626" y="437.8125"/><text fill="#000000" font-family="sans-serif" font-size="12" lengthAdjust="spacing" textLength="86.5781" x="66.6626" y="458.9512">Skoru Hesapla</text><rect fill="#F1F1F1" height="33.9688" rx="12.5" ry="12.5" style="stroke:#181818;stroke-width:0.5;" width="85.1387" x="67.3823" y="491.7813"/><text fill="#000000" font-family="sans-serif" font-size="12" lengthAdjust="spacing" textLength="65.1387" x="77.3823" y="512.9199">&#199;&#305;k&#305;&#351;a Ula&#351;</text><ellipse cx="109.9517" cy="556.75" fill="none" rx="11" ry="11" style="stroke:#222222;stroke-width:1;"/><ellipse cx="109.9517" cy="556.75" fill="#222222" rx="6" ry="6" style="stroke:#222222;stroke-width:1;"/><line style="stroke:#181818;stroke-width:1;" x1="109.9517" x2="109.9517" y1="30" y2="50"/><polygon fill="#181818" points="105.9517,40,109.9517,50,113.9517,40,109.9517,44" style="stroke:#181818;stroke-width:1;"/><line style="stroke:#181818;stroke-width:1;" x1="109.9517" x2="109.9517" y1="83.9688" y2="103.9688"/><polygon fill="#181818" points="105.9517,93.9688,109.9517,103.9688,113.9517,93.9688,109.9517,97.9688" style="stroke:#181818;stroke-width:1;"/><line style="stroke:#181818;stroke-width:1;" x1="109.9517" x2="109.9517" y1="137.9375" y2="157.9375"/><polygon fill="#181818" points="105.9517,147.9375,109.9517,157.9375,113.9517,147.9375,109.9517,151.9375" style="stroke:#181818;stroke-width:1;"/><line style="stroke:#181818;stroke-width:1;" x1="109.9517" x2="109.9517" y1="191.9063" y2="211.9063"/><polygon fill="#181818" points="105.9517,201.9063,109.9517,211.9063,113.9517,201.9063,109.9517,205.9063" style="stroke:#181818;stroke-width:1;"/><line style="stroke:#181818;stroke-width:1;" x1="109.9517" x2="109.9517" y1="245.875" y2="265.875"/><polygon fill="#181818" points="105.9517,255.875,109.9517,265.875,113.9517,255.875,109.9517,259.875" style="stroke:#181818;stroke-width:1;"/><line style="stroke:#181818;stroke-width:1;" x1="59.8921" x2="48.5654" y1="331.8438" y2="331.8438"/><line style="stroke:#181818;stroke-width:1;" x1="48.5654" x2="48.5654" y1="331.8438" y2="353.8438"/><polygon fill="#181818" points="44.5654,343.8438,48.5654,353.8438,52.5654,343.8438,48.5654,347.8438" style="stroke:#181818;stroke-width:1;"/><line style="stroke:#181818;stroke-width:1;" x1="160.0112" x2="171.3379" y1="331.8438" y2="331.8438"/><line style="stroke:#181818;stroke-width:1;" x1="171.3379" x2="171.3379" y1="331.8438" y2="353.8438"/><polygon fill="#181818" points="167.3379,343.8438,171.3379,353.8438,175.3379,343.8438,171.3379,347.8438" style="stroke:#181818;stroke-width:1;"/><line style="stroke:#181818;stroke-width:1;" x1="48.5654" x2="48.5654" y1="387.8125" y2="405.8125"/><line style="stroke:#181818;stroke-width:1;" x1="48.5654" x2="97.9517" y1="405.8125" y2="405.8125"/><polygon fill="#181818" points="87.9517,401.8125,97.9517,405.8125,87.9517,409.8125,91.9517,405.8125" style="stroke:#181818;stroke-width:1;"/><line style="stroke:#181818;stroke-width:1;" x1="171.3379" x2="171.3379" y1="387.8125" y2="405.8125"/><line style="stroke:#181818;stroke-width:1;" x1="171.3379" x2="121.9517" y1="405.8125" y2="405.8125"/><polygon fill="#181818" points="131.9517,401.8125,121.9517,405.8125,131.9517,409.8125,127.9517,405.8125" style="stroke:#181818;stroke-width:1;"/><line style="stroke:#181818;stroke-width:1;" x1="109.9517" x2="109.9517" y1="299.8438" y2="319.8438"/><polygon fill="#181818" points="105.9517,309.8438,109.9517,319.8438,113.9517,309.8438,109.9517,313.8438" style="stroke:#181818;stroke-width:1;"/><line style="stroke:#181818;stroke-width:1;" x1="109.9517" x2="109.9517" y1="417.8125" y2="437.8125"/><polygon fill="#181818" points="105.9517,427.8125,109.9517,437.8125,113.9517,427.8125,109.9517,431.8125" style="stroke:#181818;stroke-width:1;"/><line style="stroke:#181818;stroke-width:1;" x1="109.9517" x2="109.9517" y1="471.7813" y2="491.7813"/><polygon fill="#181818" points="105.9517,481.7813,109.9517,491.7813,113.9517,481.7813,109.9517,485.7813" style="stroke:#181818;stroke-width:1;"/><line style="stroke:#181818;stroke-width:1;" x1="109.9517" x2="109.9517" y1="525.75" y2="545.75"/><polygon fill="#181818" points="105.9517,535.75,109.9517,545.75,113.9517,535.75,109.9517,539.75" style="stroke:#181818;stroke-width:1;"/><!--SRC=[DOrD3e8m48NtFSKiuGgmC1f9I7JdJ-9or06RbfQqnSGJU0oMhhjtHxcN1U9ollVUDzQXSIpRuDXBL7NmmoTdsHwlt91o72x3LqYAwAZR3fQQY-Ukax4V_2ruAD6G80V551Ig9WaxhPpHSaQyWcIXPpJG1BzAmJr8GV8YcpA0PSDXFVOv8sa94gNdu6_UqXERMKRgpYkM7OGs7PHaiPKOlmxlu4NmOuzmaZXvhDFj3m00]--></g></svg>