<svg xmlns="http://www.w3.org/2000/svg" xmlns:xlink="http://www.w3.org/1999/xlink" contentStyleType="text/css" data-diagram-type="CLASS" height="491px" preserveAspectRatio="none" style="width:399px;height:491px;background:#FFFFFF;" version="1.1" viewBox="0 0 399 491" width="399px" zoomAndPan="magnify"><defs/><g><!--class Top--><g id="elem_Top"><rect codeLine="1" fill="#F1F1F1" height="113.1875" id="Top" rx="2.5" ry="2.5" style="stroke:#181818;stroke-width:0.5;" width="185.0723" x="17.14" y="7"/><ellipse cx="92.4242" cy="23" fill="#ADD1B2" rx="11" ry="11" style="stroke:#181818;stroke-width:1;"/><path d="M95.3929,28.6406 Q94.8148,28.9375 94.1742,29.0781 Q93.5336,29.2344 92.8304,29.2344 Q90.3304,29.2344 89.0023,27.5938 Q87.6898,25.9375 87.6898,22.8125 Q87.6898,19.6875 89.0023,18.0313 Q90.3304,16.375 92.8304,16.375 Q93.5336,16.375 94.1742,16.5313 Q94.8304,16.6875 95.3929,16.9844 L95.3929,19.7031 Q94.7679,19.125 94.1742,18.8594 Q93.5804,18.5781 92.9554,18.5781 Q91.6117,18.5781 90.9242,19.6563 Q90.2367,20.7188 90.2367,22.8125 Q90.2367,24.9063 90.9242,25.9844 Q91.6117,27.0469 92.9554,27.0469 Q93.5804,27.0469 94.1742,26.7813 Q94.7679,26.5 95.3929,25.9219 L95.3929,28.6406 Z " fill="#000000"/><text fill="#000000" font-family="sans-serif" font-size="14" lengthAdjust="spacing" textLength="26.0039" x="112.9242" y="27.8467">Top</text><line style="stroke:#181818;stroke-width:0.5;" x1="18.14" x2="201.2123" y1="39" y2="39"/><rect fill="none" height="6" style="stroke:#C82930;stroke-width:1;" width="6" x="25.14" y="49.6484"/><text fill="#000000" font-family="sans-serif" font-size="14" lengthAdjust="spacing" textLength="88.6758" x="37.14" y="55.9951">konum: float</text><rect fill="none" height="6" style="stroke:#C82930;stroke-width:1;" width="6" x="25.14" y="65.9453"/><text fill="#000000" font-family="sans-serif" font-size="14" lengthAdjust="spacing" textLength="60.7305" x="37.14" y="72.292">h&#305;z: float</text><line style="stroke:#181818;stroke-width:0.5;" x1="18.14" x2="201.2123" y1="79.5938" y2="79.5938"/><ellipse cx="28.14" cy="93.2422" fill="#84BE84" rx="3" ry="3" style="stroke:#038048;stroke-width:1;"/><text fill="#000000" font-family="sans-serif" font-size="14" lengthAdjust="spacing" textLength="118.084" x="37.14" y="96.5889">hareketEt(): void</text><ellipse cx="28.14" cy="109.5391" fill="#84BE84" rx="3" ry="3" style="stroke:#038048;stroke-width:1;"/><text fill="#000000" font-family="sans-serif" font-size="14" lengthAdjust="spacing" textLength="159.0723" x="37.14" y="112.8857">konumG&#252;ncelle(): void</text></g><!--class Labirent--><g id="elem_Labirent"><rect codeLine="8" fill="#F1F1F1" height="113.1875" id="Labirent" rx="2.5" ry="2.5" style="stroke:#181818;stroke-width:0.5;" width="205.3545" x="7" y="197.19"/><ellipse cx="76.4839" cy="213.19" fill="#ADD1B2" rx="11" ry="11" style="stroke:#181818;stroke-width:1;"/><path d="M79.4526,218.8306 Q78.8745,219.1275 78.2339,219.2681 Q77.5933,219.4244 76.8901,219.4244 Q74.3901,219.4244 73.062,217.7838 Q71.7495,216.1275 71.7495,213.0025 Q71.7495,209.8775 73.062,208.2213 Q74.3901,206.565 76.8901,206.565 Q77.5933,206.565 78.2339,206.7213 Q78.8901,206.8775 79.4526,207.1744 L79.4526,209.8931 Q78.8276,209.315 78.2339,209.0494 Q77.6401,208.7681 77.0151,208.7681 Q75.6714,208.7681 74.9839,209.8463 Q74.2964,210.9088 74.2964,213.0025 Q74.2964,215.0963 74.9839,216.1744 Q75.6714,217.2369 77.0151,217.2369 Q77.6401,217.2369 78.2339,216.9713 Q78.8276,216.69 79.4526,216.1119 L79.4526,218.8306 Z " fill="#000000"/><text fill="#000000" font-family="sans-serif" font-size="14" lengthAdjust="spacing" textLength="57.8867" x="96.9839" y="218.0367">Labirent</text><line style="stroke:#181818;stroke-width:0.5;" x1="8" x2="211.3545" y1="229.19" y2="229.19"/><rect fill="none" height="6" style="stroke:#C82930;stroke-width:1;" width="6" x="15" y="239.8384"/><text fill="#000000" font-family="sans-serif" font-size="14" lengthAdjust="spacing" textLength="91.3145" x="27" y="246.1851">b&#252;y&#252;kl&#252;k: int</text><rect fill="none" height="6" style="stroke:#C82930;stroke-width:1;" width="6" x="15" y="256.1353"/><text fill="#000000" font-family="sans-serif" font-size="14" lengthAdjust="spacing" textLength="179.3545" x="27" y="262.482">engelListesi: List&lt;Engel&gt;</text><line style="stroke:#181818;stroke-width:0.5;" x1="8" x2="211.3545" y1="269.7838" y2="269.7838"/><ellipse cx="18" cy="283.4322" fill="#84BE84" rx="3" ry="3" style="stroke:#038048;stroke-width:1;"/><text fill="#000000" font-family="sans-serif" font-size="14" lengthAdjust="spacing" textLength="140.6494" x="27" y="286.7789">labirentYarat(): void</text><ellipse cx="18" cy="299.7291" fill="#84BE84" rx="3" ry="3" style="stroke:#038048;stroke-width:1;"/><text fill="#000000" font-family="sans-serif" font-size="14" lengthAdjust="spacing" textLength="118.0498" x="27" y="303.0757">engelEkle(): void</text></g><!--class Engel--><g id="elem_Engel"><rect codeLine="15" fill="#F1F1F1" height="96.8906" id="Engel" rx="2.5" ry="2.5" style="stroke:#181818;stroke-width:0.5;" width="165.1934" x="27.08" y="387.38"/><ellipse cx="85.8725" cy="403.38" fill="#ADD1B2" rx="11" ry="11" style="stroke:#181818;stroke-width:1;"/><path d="M88.8412,409.0206 Q88.2631,409.3175 87.6225,409.4581 Q86.9819,409.6144 86.2787,409.6144 Q83.7787,409.6144 82.4506,407.9738 Q81.1381,406.3175 81.1381,403.1925 Q81.1381,400.0675 82.4506,398.4113 Q83.7787,396.755 86.2787,396.755 Q86.9819,396.755 87.6225,396.9113 Q88.2787,397.0675 88.8412,397.3644 L88.8412,400.0831 Q88.2162,399.505 87.6225,399.2394 Q87.0287,398.9581 86.4037,398.9581 Q85.06,398.9581 84.3725,400.0363 Q83.685,401.0988 83.685,403.1925 Q83.685,405.2863 84.3725,406.3644 Q85.06,407.4269 86.4037,407.4269 Q87.0287,407.4269 87.6225,407.1613 Q88.2162,406.88 88.8412,406.3019 L88.8412,409.0206 Z " fill="#000000"/><text fill="#000000" font-family="sans-serif" font-size="14" lengthAdjust="spacing" textLength="39.1084" x="106.3725" y="408.2267">Engel</text><line style="stroke:#181818;stroke-width:0.5;" x1="28.08" x2="191.2734" y1="419.38" y2="419.38"/><rect fill="none" height="6" style="stroke:#C82930;stroke-width:1;" width="6" x="35.08" y="430.0284"/><text fill="#000000" font-family="sans-serif" font-size="14" lengthAdjust="spacing" textLength="88.6758" x="47.08" y="436.3751">konum: float</text><rect fill="none" height="6" style="stroke:#C82930;stroke-width:1;" width="6" x="35.08" y="446.3253"/><text fill="#000000" font-family="sans-serif" font-size="14" lengthAdjust="spacing" textLength="67.6211" x="47.08" y="452.672">tip: string</text><line style="stroke:#181818;stroke-width:0.5;" x1="28.08" x2="191.2734" y1="459.9738" y2="459.9738"/><ellipse cx="38.08" cy="473.6222" fill="#84BE84" rx="3" ry="3" style="stroke:#038048;stroke-width:1;"/><text fill="#000000" font-family="sans-serif" font-size="14" lengthAdjust="spacing" textLength="139.1934" x="47.08" y="476.9689">engelKontrol(): bool</text></g><!--class Skor--><g id="elem_Skor"><rect codeLine="21" fill="#F1F1F1" height="80.5938" id="Skor" rx="2.5" ry="2.5" style="stroke:#181818;stroke-width:0.5;" width="155.9238" x="236.72" y="23.3"/><ellipse cx="294.7742" cy="39.3" fill="#ADD1B2" rx="11" ry="11" style="stroke:#181818;stroke-width:1;"/><path d="M297.7429,44.9406 Q297.1648,45.2375 296.5242,45.3781 Q295.8836,45.5344 295.1804,45.5344 Q292.6804,45.5344 291.3523,43.8937 Q290.0398,42.2375 290.0398,39.1125 Q290.0398,35.9875 291.3523,34.3312 Q292.6804,32.675 295.1804,32.675 Q295.8836,32.675 296.5242,32.8312 Q297.1804,32.9875 297.7429,33.2844 L297.7429,36.0031 Q297.1179,35.425 296.5242,35.1594 Q295.9304,34.8781 295.3054,34.8781 Q293.9617,34.8781 293.2742,35.9562 Q292.5867,37.0187 292.5867,39.1125 Q292.5867,41.2062 293.2742,42.2844 Q293.9617,43.3469 295.3054,43.3469 Q295.9304,43.3469 296.5242,43.0812 Q297.1179,42.8 297.7429,42.2219 L297.7429,44.9406 Z " fill="#000000"/><text fill="#000000" font-family="sans-serif" font-size="14" lengthAdjust="spacing" textLength="31.3154" x="315.2742" y="44.1467">Skor</text><line style="stroke:#181818;stroke-width:0.5;" x1="237.72" x2="391.6438" y1="55.3" y2="55.3"/><rect fill="none" height="6" style="stroke:#C82930;stroke-width:1;" width="6" x="244.72" y="65.9484"/><text fill="#000000" font-family="sans-serif" font-size="14" lengthAdjust="spacing" textLength="62.6309" x="256.72" y="72.2951">puan: int</text><line style="stroke:#181818;stroke-width:0.5;" x1="237.72" x2="391.6438" y1="79.5969" y2="79.5969"/><ellipse cx="247.72" cy="93.2453" fill="#84BE84" rx="3" ry="3" style="stroke:#038048;stroke-width:1;"/><text fill="#000000" font-family="sans-serif" font-size="14" lengthAdjust="spacing" textLength="129.9238" x="256.72" y="96.592">puanHesapla(): int</text></g><!--link Top to Labirent--><g id="link_Top_Labirent"><path codeLine="26" d="M109.68,120.55 C109.68,144.6 109.68,166.66 109.68,190.72 " fill="none" id="Top-to-Labirent" style="stroke:#181818;stroke-width:1;"/><polygon fill="#181818" points="109.68,196.72,113.68,187.72,109.68,191.72,105.68,187.72,109.68,196.72" style="stroke:#181818;stroke-width:1;"/><text fill="#000000" font-family="sans-serif" font-size="13" lengthAdjust="spacing" textLength="127.1118" x="110.68" y="163.2569">&#304;&#231;inde hareket eder</text></g><!--link Labirent to Engel--><g id="link_Labirent_Engel"><path codeLine="27" d="M109.68,310.76 C109.68,335.23 109.68,357.63 109.68,381.07 " fill="none" id="Labirent-to-Engel" style="stroke:#181818;stroke-width:1;"/><polygon fill="#181818" points="109.68,387.07,113.68,378.07,109.68,382.07,105.68,378.07,109.68,387.07" style="stroke:#181818;stroke-width:1;"/><text fill="#000000" font-family="sans-serif" font-size="13" lengthAdjust="spacing" textLength="73.5059" x="110.68" y="353.4469">Engel i&#231;erir</text></g><!--SRC=[RL0nRiCm3Dpz2euD0dz0AB8PAT1ipT9Hjfc442CPabAWAVgUhEtkJNbOGzcr4I238Ds9TqUoOHq2R5q7NmL0QPmz7HNisEae-73zFSzmUT0U3SOgFYqKV3XgXSoQTUfjWymu_NmNHPFDDxecZpOE2NNgFrDl-7OKaCqfQFV86meH0ocGntCbr4hiUPI_Qw_lShEgCeyYi_hnH94w1I5will9vDNPw1sBJ-qSppvlnld1fZjf-z_lKi0B1jsn5esmDuaiiInNyxmAhZ_fGhP561S7sA8lfWAf7bfLuqtfWfxy7m00]--></g></svg>