<svg xmlns="http://www.w3.org/2000/svg" xmlns:xlink="http://www.w3.org/1999/xlink" contentStyleType="text/css" data-diagram-type="SEQUENCE" height="303px" preserveAspectRatio="none" style="width:242px;height:303px;background:#FFFFFF;" version="1.1" viewBox="0 0 242 303" width="242px" zoomAndPan="magnify"><title>AR Projesi Zaman &#199;izelgesi</title><defs/><g><text fill="#000000" font-family="sans-serif" font-size="14" font-weight="bold" lengthAdjust="spacing" textLength="214.2109" x="10" y="27.9951">AR Projesi Zaman &#199;izelgesi</text><line style="stroke:#181818;stroke-width:0.5;stroke-dasharray:5.0,5.0;" x1="48.1008" x2="48.1008" y1="73.5938" y2="268.3906"/><line style="stroke:#181818;stroke-width:0.5;stroke-dasharray:5.0,5.0;" x1="191.2996" x2="191.2996" y1="73.5938" y2="268.3906"/><rect fill="#E2E2F0" height="30.2969" rx="2.5" ry="2.5" style="stroke:#181818;stroke-width:0.5;" width="72.7617" x="12.1008" y="42.2969"/><text fill="#000000" font-family="sans-serif" font-size="14" lengthAdjust="spacing" textLength="58.7617" x="19.1008" y="62.292">Kullan&#305;c&#305;</text><rect fill="#E2E2F0" height="30.2969" rx="2.5" ry="2.5" style="stroke:#181818;stroke-width:0.5;" width="72.7617" x="12.1008" y="267.3906"/><text fill="#000000" font-family="sans-serif" font-size="14" lengthAdjust="spacing" textLength="58.7617" x="19.1008" y="287.3857">Kullan&#305;c&#305;</text><rect fill="#E2E2F0" height="30.2969" rx="2.5" ry="2.5" style="stroke:#181818;stroke-width:0.5;" width="61.8105" x="161.2996" y="42.2969"/><text fill="#000000" font-family="sans-serif" font-size="14" lengthAdjust="spacing" textLength="47.8105" x="168.2996" y="62.292">Sistem</text><rect fill="#E2E2F0" height="30.2969" rx="2.5" ry="2.5" style="stroke:#181818;stroke-width:0.5;" width="61.8105" x="161.2996" y="267.3906"/><text fill="#000000" font-family="sans-serif" font-size="14" lengthAdjust="spacing" textLength="47.8105" x="168.2996" y="287.3857">Sistem</text><polygon fill="#181818" points="180.2048,100.7266,190.2048,104.7266,180.2048,108.7266,184.2048,104.7266" style="stroke:#181818;stroke-width:1;"/><line style="stroke:#181818;stroke-width:1;" x1="48.4817" x2="186.2048" y1="104.7266" y2="104.7266"/><text fill="#000000" font-family="sans-serif" font-size="13" lengthAdjust="spacing" textLength="40.333" x="55.4817" y="99.6606">Ba&#351;lat</text><polygon fill="#181818" points="59.4817,129.8594,49.4817,133.8594,59.4817,137.8594,55.4817,133.8594" style="stroke:#181818;stroke-width:1;"/><line style="stroke:#181818;stroke-width:1;" x1="53.4817" x2="191.2048" y1="133.8594" y2="133.8594"/><text fill="#000000" font-family="sans-serif" font-size="13" lengthAdjust="spacing" textLength="96.8145" x="65.4817" y="128.7935">Labirenti Y&#252;kle</text><polygon fill="#181818" points="180.2048,158.9922,190.2048,162.9922,180.2048,166.9922,184.2048,162.9922" style="stroke:#181818;stroke-width:1;"/><line style="stroke:#181818;stroke-width:1;" x1="48.4817" x2="186.2048" y1="162.9922" y2="162.9922"/><text fill="#000000" font-family="sans-serif" font-size="13" lengthAdjust="spacing" textLength="69.1514" x="55.4817" y="157.9263">Hareket Et</text><polygon fill="#181818" points="59.4817,188.125,49.4817,192.125,59.4817,196.125,55.4817,192.125" style="stroke:#181818;stroke-width:1;"/><line style="stroke:#181818;stroke-width:1;" x1="53.4817" x2="191.2048" y1="192.125" y2="192.125"/><text fill="#000000" font-family="sans-serif" font-size="13" lengthAdjust="spacing" textLength="87.1724" x="65.4817" y="187.0591">Engel Kontrol</text><polygon fill="#181818" points="180.2048,217.2578,190.2048,221.2578,180.2048,225.2578,184.2048,221.2578" style="stroke:#181818;stroke-width:1;"/><line style="stroke:#181818;stroke-width:1;" x1="48.4817" x2="186.2048" y1="221.2578" y2="221.2578"/><text fill="#000000" font-family="sans-serif" font-size="13" lengthAdjust="spacing" textLength="119.7231" x="55.4817" y="216.1919">Topu Hareket Ettir</text><polygon fill="#181818" points="59.4817,246.3906,49.4817,250.3906,59.4817,254.3906,55.4817,250.3906" style="stroke:#181818;stroke-width:1;"/><line style="stroke:#181818;stroke-width:1;" x1="53.4817" x2="191.2048" y1="250.3906" y2="250.3906"/><text fill="#000000" font-family="sans-serif" font-size="13" lengthAdjust="spacing" textLength="84.6904" x="65.4817" y="245.3247">Skoru G&#246;ster</text><!--SRC=[TOmn3e9044NxFSLSm0jGc6X2DC72g8rs8vcGaM6N34FZ1Jo6Pw2niWFl9KOBBBRyx_qyOnE2nGws6YxKC9omGW_zZQyanGYSgr6DSwxH6sIj2FgXouVkZ- -vCQgSctYOpNyuWIM-xeBclljZ9iS4DdXc9MyCn_vP2iKoQrGgoI2Dbb9Va40Ml6cGMEOGwdRICjPORby6RM7LFqQhRm00]--></g></svg>