<svg xmlns="http://www.w3.org/2000/svg" xmlns:xlink="http://www.w3.org/1999/xlink" contentStyleType="text/css" data-diagram-type="DESCRIPTION" height="246px" preserveAspectRatio="none" style="width:1012px;height:246px;background:#FFFFFF;" version="1.1" viewBox="0 0 1012 246" width="1012px" zoomAndPan="magnify"><defs/><g><!--cluster Web Uygulamas?--><g id="cluster_Web Uygulamas&#305;"><rect fill="none" height="95.75" rx="2.5" ry="2.5" style="stroke:#181818;stroke-width:1;" width="999" x="7" y="144.79"/><text fill="#000000" font-family="sans-serif" font-size="14" font-weight="bold" lengthAdjust="spacing" textLength="131.7285" x="440.6357" y="159.7851">Web Uygulamas&#305;</text></g><g id="elem_UC1"><ellipse cx="108.0031" cy="202.1666" fill="#F1F1F1" rx="84.5331" ry="19.3066" style="stroke:#181818;stroke-width:0.5;"/><text fill="#000000" font-family="sans-serif" font-size="14" lengthAdjust="spacing" textLength="129.2471" x="43.2928" y="205.0434">Kullan&#305;c&#305; Giri&#351;i Yap</text></g><g id="elem_UC2"><ellipse cx="322.0017" cy="202.1723" fill="#F1F1F1" rx="94.1617" ry="21.2323" style="stroke:#181818;stroke-width:0.5;"/><text fill="#000000" font-family="sans-serif" font-size="14" lengthAdjust="spacing" textLength="151.1016" x="246.4509" y="205.019">Anasayfay&#305; G&#246;r&#252;nt&#252;le</text></g><g id="elem_UC3"><ellipse cx="518.998" cy="202.1676" fill="#F1F1F1" rx="67.388" ry="15.8776" style="stroke:#181818;stroke-width:0.5;"/><text fill="#000000" font-family="sans-serif" font-size="14" lengthAdjust="spacing" textLength="85.6201" x="473.1879" y="205.9152">GitHub'a Git</text></g><g id="elem_UC4"><ellipse cx="687.996" cy="202.1692" fill="#F1F1F1" rx="67.046" ry="15.8092" style="stroke:#181818;stroke-width:0.5;"/><text fill="#000000" font-family="sans-serif" font-size="14" lengthAdjust="spacing" textLength="84.6563" x="642.6679" y="205.9168">Trello'ya Git</text></g><g id="elem_UC5"><ellipse cx="889.9957" cy="202.1731" fill="#F1F1F1" rx="99.8657" ry="22.3731" style="stroke:#181818;stroke-width:0.5;"/><text fill="#000000" font-family="sans-serif" font-size="14" lengthAdjust="spacing" textLength="163.7617" x="808.1149" y="205.0198">D&#246;k&#252;manlar&#305; G&#246;r&#252;nt&#252;le</text></g><!--entity User--><g id="elem_User"><ellipse cx="519.0009" cy="14" fill="#F1F1F1" rx="8" ry="8" style="stroke:#181818;stroke-width:0.5;"/><path d="M519.0009,22 L519.0009,49 M506.0009,30 L532.0009,30 M519.0009,49 L506.0009,64 M519.0009,49 L532.0009,64 " fill="none" style="stroke:#181818;stroke-width:0.5;"/><text fill="#000000" font-family="sans-serif" font-size="14" lengthAdjust="spacing" textLength="58.7617" x="489.62" y="78.4951">Kullan&#305;c&#305;</text></g><!--entity Admin--><g id="elem_Admin"><ellipse cx="606.0021" cy="14" fill="#F1F1F1" rx="8" ry="8" style="stroke:#181818;stroke-width:0.5;"/><path d="M606.0021,22 L606.0021,49 M593.0021,30 L619.0021,30 M606.0021,49 L593.0021,64 M606.0021,49 L619.0021,64 " fill="none" style="stroke:#181818;stroke-width:0.5;"/><text fill="#000000" font-family="sans-serif" font-size="14" lengthAdjust="spacing" textLength="44.8643" x="583.57" y="78.4951">Admin</text></g><!--link User to UC1--><g id="link_User_UC1"><path d="M489.42,50.43 C433.16,62.08 307.65,91.23 210,136.79 C181.92,149.9 157.1199,165.9213 137.0599,180.0113 " fill="none" id="User-to-UC1" style="stroke:#181818;stroke-width:1;"/><polygon fill="#181818" points="132.15,183.46,141.8139,181.5603,136.2416,180.5861,137.2157,175.0138,132.15,183.46" style="stroke:#181818;stroke-width:1;"/><text fill="#000000" font-family="sans-serif" font-size="13" lengthAdjust="spacing" textLength="57.7065" x="268" y="124.8569">Giri&#351; Yap</text></g><!--link User to UC2--><g id="link_User_UC2"><path d="M489.22,51.69 C456.35,60.77 403.53,79.38 369,111.79 C348.68,130.87 337.4855,155.0786 330.3955,174.9586 " fill="none" id="User-to-UC2" style="stroke:#181818;stroke-width:1;"/><polygon fill="#181818" points="328.38,180.61,335.1708,173.4766,330.0596,175.9005,327.6357,170.7893,328.38,180.61" style="stroke:#181818;stroke-width:1;"/><text fill="#000000" font-family="sans-serif" font-size="13" lengthAdjust="spacing" textLength="140.3086" x="370" y="124.8569">Anasayfay&#305; G&#246;r&#252;nt&#252;le</text></g><!--link User to UC3--><g id="link_User_UC3"><path d="M519,82.14 C519,115.42 519,156.35 519,180.11 " fill="none" id="User-to-UC3" style="stroke:#181818;stroke-width:1;"/><polygon fill="#181818" points="519,186.11,523,177.11,519,181.11,515,177.11,519,186.11" style="stroke:#181818;stroke-width:1;"/><text fill="#000000" font-family="sans-serif" font-size="13" lengthAdjust="spacing" textLength="79.5044" x="520" y="124.8569">GitHub'a Git</text></g><!--link User to UC4--><g id="link_User_UC4"><path d="M548.67,68.45 C554.38,72.93 560.35,77.54 566,81.79 C584.34,95.58 590.91,96.49 608,111.79 C634.68,135.69 657.8715,163.135 672.6815,181.645 " fill="none" id="User-to-UC4" style="stroke:#181818;stroke-width:1;"/><polygon fill="#181818" points="676.43,186.33,673.9306,176.8036,673.3063,182.4259,667.684,181.8015,676.43,186.33" style="stroke:#181818;stroke-width:1;"/><text fill="#000000" font-family="sans-serif" font-size="13" lengthAdjust="spacing" textLength="78.6094" x="626" y="124.8569">Trello'ya Git</text></g><!--link User to UC5--><g id="link_User_UC5"><path d="M548.73,71.44 C554.19,75.38 560.06,79.03 566,81.79 C626.47,109.9 649.26,92.21 713,111.79 C740.62,120.28 746.97,124.26 773,136.79 C801.2,150.38 826.9842,164.5568 849.9842,177.7368 " fill="none" id="User-to-UC5" style="stroke:#181818;stroke-width:1;"/><polygon fill="#181818" points="855.19,180.72,849.37,172.7747,850.8518,178.234,845.3925,179.7158,855.19,180.72" style="stroke:#181818;stroke-width:1;"/><text fill="#000000" font-family="sans-serif" font-size="13" lengthAdjust="spacing" textLength="152.0645" x="756" y="124.8569">D&#246;k&#252;manlar&#305; G&#246;r&#252;nt&#252;le</text></g><!--SRC=[VO-n2i8m54NtVCMZYpfqqDh5GIWA5LmjulXQOmccgQJfKCHlyHkwE7LB_I-RKZ22khvpEPo7YSebR4lEKRHrqjQ01KG5bGHx4Xmp9WYHD54eKax1sTCOeYejEMPOjBK3Lm8mjWqXa-nvPt30owJNhQPc4WWii3fXPIRw8NKZb6uu7JOpimcPsfJn23k76kwUkUyavJmVLJQO6x3MZxDkCXGSvNUlJsw4c8_0TPUc1HP3eGcqoQmZloBjdTSRtg4sctVi8zQ6VWV_1By0]--></g></svg>